<svg width="800" height="800" viewBox="0 0 800 800" fill="none" xmlns="http://www.w3.org/2000/svg">
<g clip-path="url(#clip0_142_34)">
<path d="M800.771 -1.84509L1630.88 986.995L-107.507 915.713L800.771 -1.84509Z" fill="#E3350D"/>
<path d="M728.805 516.673L674.969 570.508C694.237 599.653 690.95 639.38 665.165 665.165C639.381 690.949 599.653 694.237 570.509 674.969L516.673 728.805C575.619 777.055 662.926 773.47 718.198 718.198C773.471 662.926 777.055 575.619 728.805 516.673Z" fill="#FAFAFA"/>
<path d="M707.591 495.459C648.645 447.209 561.339 450.794 506.066 506.066C450.794 561.338 447.209 648.645 495.459 707.591L549.295 653.755C530.027 624.61 533.315 584.883 559.099 559.099C584.884 533.314 624.611 530.027 653.756 549.295L707.591 495.459Z" fill="#FAFAFA"/>
<path fill-rule="evenodd" clip-rule="evenodd" d="M643.952 643.952C661.613 626.291 661.684 597.728 644.11 580.154C626.536 562.58 597.974 562.651 580.312 580.312C562.652 597.972 562.58 626.536 580.155 644.11C597.729 661.684 626.292 661.612 643.952 643.952ZM628.121 596.143C636.907 604.93 636.873 619.211 628.042 628.042C619.212 636.872 604.93 636.907 596.143 628.121C587.357 619.334 587.392 605.052 596.222 596.222C605.053 587.391 619.334 587.357 628.121 596.143Z" fill="#FAFAFA"/>
</g>
<defs>
<clipPath id="clip0_142_34">
<rect width="800" height="800" fill="white"/>
</clipPath>
</defs>
</svg>
