<svg width="425" height="425" viewBox="0 0 425 425" fill="none" xmlns="http://www.w3.org/2000/svg">
<path d="M328.805 116.673L274.969 170.508C294.237 199.653 290.95 239.38 265.165 265.165C239.381 290.949 199.653 294.237 170.509 274.969L116.673 328.805C175.619 377.055 262.926 373.47 318.198 318.198C373.471 262.925 377.055 175.619 328.805 116.673Z" fill="#FAFAFA"/>
<path d="M307.591 95.4594C248.645 47.2086 161.339 50.7935 106.066 106.066C50.7944 161.338 47.2088 248.645 95.4594 307.591L149.295 253.755C130.027 224.61 133.315 184.883 159.099 159.099C184.884 133.314 224.611 130.027 253.756 149.295L307.591 95.4594Z" fill="#FAFAFA"/>
<path fill-rule="evenodd" clip-rule="evenodd" d="M243.952 243.952C261.613 226.29 261.684 197.728 244.11 180.154C226.536 162.58 197.974 162.651 180.312 180.312C162.652 197.972 162.58 226.535 180.155 244.11C197.729 261.684 226.292 261.612 243.952 243.952ZM228.121 196.143C236.907 204.93 236.873 219.211 228.042 228.042C219.212 236.872 204.93 236.907 196.143 228.121C187.357 219.334 187.392 205.052 196.222 196.222C205.053 187.391 219.334 187.357 228.121 196.143Z" fill="#FAFAFA"/>
</svg>
