<svg width="538" height="156" viewBox="0 0 538 156" fill="none" xmlns="http://www.w3.org/2000/svg">
<path d="M0.875 34.6875L-0.0666182 31.8391L-3.35909 32.9275L-1.80828 36.0291L0.875 34.6875ZM15.0625 30.0625L14.154 27.2034L14.1462 27.2059L15.0625 30.0625ZM29.125 26.0625L29.8642 28.97L29.8757 28.9671L29.8873 28.964L29.125 26.0625ZM43.25 23L43.7432 25.9592L43.749 25.9582L43.25 23ZM65.75 22.625L66.3133 19.6784L66.2942 19.6747L66.2751 19.6713L65.75 22.625ZM73.75 25.25L72.4445 27.951L72.4532 27.9553L72.4619 27.9594L73.75 25.25ZM80.5 30.125L78.335 32.2017L78.3566 32.2242L78.3787 32.2463L80.5 30.125ZM85.375 37.25L88.1164 36.0316L88.1113 36.0201L88.1061 36.0086L85.375 37.25ZM78.4375 58.0625L76.0375 56.2625L76.0305 56.2719L78.4375 58.0625ZM63.0625 75.9375L60.9585 73.799L60.9499 73.8075L63.0625 75.9375ZM51.5625 86.875L49.5949 84.6104L48.154 85.8623L48.6776 87.698L51.5625 86.875ZM62.8125 126.312L64.5676 128.746L66.2749 127.514L65.6974 125.49L62.8125 126.312ZM46.4375 138.125L43.606 139.116L44.9338 142.909L48.1926 140.558L46.4375 138.125ZM17.75 56.1875L20.5815 55.1962L19.8782 53.1875H17.75V56.1875ZM13.75 60.5L11.5237 58.4891L11.5201 58.4931L13.75 60.5ZM11.625 62.8125V65.8125H12.8676L13.7463 64.9338L11.625 62.8125ZM10.375 60.125L7.56333 61.1712L7.57394 61.1997L7.58512 61.228L10.375 60.125ZM7.625 52.6875L4.794 53.6802L4.80181 53.7025L4.80997 53.7246L7.625 52.6875ZM3.8125 42.0625L6.63011 41.0324L6.62705 41.024L6.62394 41.0157L3.8125 42.0625ZM41.3125 52.0625L39.5338 49.6467L37.8681 50.873L38.4221 52.8659L41.3125 52.0625ZM46.4375 70.5L43.5471 71.3034L44.9366 76.3021L48.5757 72.6043L46.4375 70.5ZM60.8125 48.5L60.1617 51.4286L60.2105 51.4394L60.2596 51.4486L60.8125 48.5ZM1.81662 37.5359C6.85103 35.8716 11.5717 34.3327 15.9788 32.9191L14.1462 27.2059C9.71999 28.6256 4.9823 30.17 -0.0666182 31.8391L1.81662 37.5359ZM15.971 32.9216C20.3689 31.5242 24.9997 30.2067 29.8642 28.97L28.3858 23.155C23.4169 24.4183 18.6727 25.7675 14.154 27.2034L15.971 32.9216ZM29.8873 28.964C34.725 27.6931 39.3433 26.6925 43.7432 25.9592L42.7568 20.0408C38.1567 20.8075 33.3583 21.8486 28.3627 23.161L29.8873 28.964ZM43.749 25.9582C47.037 25.4036 50.4116 25.125 53.875 25.125V19.125C50.0884 19.125 46.3797 19.4297 42.751 20.0418L43.749 25.9582ZM53.875 25.125C59.9727 25.125 63.6574 25.3 65.2249 25.5787L66.2751 19.6713C64.0926 19.2833 59.8606 19.125 53.875 19.125V25.125ZM65.1867 25.5716C67.773 26.0661 70.1891 26.861 72.4445 27.951L75.0555 22.549C72.3109 21.2224 69.3937 20.2673 66.3133 19.6784L65.1867 25.5716ZM72.4619 27.9594C74.6736 29.0109 76.6269 30.4209 78.335 32.2017L82.665 28.0483C80.4565 25.7458 77.9097 23.9058 75.0381 22.5406L72.4619 27.9594ZM78.3787 32.2463C80.1075 33.9751 81.5326 36.0465 82.6439 38.4914L88.1061 36.0086C86.7174 32.9535 84.8925 30.2749 82.6213 28.0037L78.3787 32.2463ZM82.6336 38.4684C82.9604 39.2038 83.125 39.9756 83.125 40.8125H89.125C89.125 39.1494 88.7896 37.5462 88.1164 36.0316L82.6336 38.4684ZM83.125 40.8125C83.125 44.4797 81.0553 49.5721 76.0375 56.2625L80.8375 59.8625C86.0697 52.8862 89.125 46.4786 89.125 40.8125H83.125ZM76.0305 56.2719C71.0236 63.0024 65.9983 68.8404 60.9585 73.799L65.1665 78.076C70.46 72.8679 75.6847 66.7892 80.8445 59.8531L76.0305 56.2719ZM60.9499 73.8075C55.8314 78.8844 52.0571 82.4711 49.5949 84.6104L53.5301 89.1396C56.1513 86.8622 60.0436 83.1573 65.1751 78.0675L60.9499 73.8075ZM48.6776 87.698L59.9276 127.135L65.6974 125.49L54.4474 86.052L48.6776 87.698ZM61.0574 123.879L44.6824 135.692L48.1926 140.558L64.5676 128.746L61.0574 123.879ZM49.269 137.134L20.5815 55.1962L14.9185 57.1788L43.606 139.116L49.269 137.134ZM17.75 53.1875C17.2007 53.1875 16.7866 53.338 16.6063 53.4108C16.3948 53.4963 16.2326 53.5893 16.1364 53.6483C15.945 53.7656 15.7974 53.8834 15.7183 53.9488C15.5492 54.0885 15.3914 54.2409 15.2693 54.3631C15.0116 54.6208 14.6915 54.967 14.3268 55.3746L18.7982 59.3754C19.1419 58.9913 19.3738 58.7438 19.5119 58.6057C19.5877 58.5299 19.5888 58.5339 19.5396 58.5746C19.5203 58.5905 19.4229 58.6713 19.2718 58.7639C19.1958 58.8105 19.0513 58.8941 18.8551 58.9735C18.7536 59.0145 18.6138 59.0644 18.4428 59.1055C18.2747 59.1459 18.037 59.1875 17.75 59.1875V53.1875ZM14.3268 55.3746C13.6229 56.1613 12.6889 57.1991 11.5237 58.4891L15.9763 62.5109C17.1444 61.2176 18.0854 60.172 18.7982 59.3754L14.3268 55.3746ZM11.5201 58.4931C10.3747 59.7658 9.72674 60.4681 9.50368 60.6912L13.7463 64.9338C14.1066 64.5735 14.8753 63.7342 15.9799 62.5069L11.5201 58.4931ZM11.625 59.8125C12.4868 59.8125 13.0813 60.1798 13.3078 60.3369C13.5699 60.5186 13.7388 60.7006 13.8124 60.7839C13.9635 60.9548 14.0426 61.0904 14.0438 61.0923C14.0615 61.1216 14.0298 61.0709 13.9389 60.8754C13.7688 60.5098 13.5136 59.9041 13.1649 59.022L7.58512 61.228C7.94473 62.1376 8.252 62.8757 8.49859 63.4058C8.61599 63.6582 8.75625 63.9436 8.90937 64.1968C8.97822 64.3107 9.11596 64.5302 9.31647 64.7571C9.41485 64.8684 9.60619 65.0714 9.88845 65.2671C10.1351 65.4382 10.7476 65.8125 11.625 65.8125V59.8125ZM13.1867 59.0788C12.5217 57.2916 11.6063 54.8159 10.44 51.6504L4.80997 53.7246C5.97705 56.8924 6.895 59.3751 7.56333 61.1712L13.1867 59.0788ZM10.456 51.6948C9.32581 48.4717 8.0504 44.9173 6.63011 41.0324L0.994893 43.0926C2.40793 46.9577 3.67419 50.4866 4.794 53.6802L10.456 51.6948ZM6.62394 41.0157C5.18402 37.1485 4.14572 34.5207 3.55828 33.3459L-1.80828 36.0291C-1.39572 36.8543 -0.475688 39.1432 1.00106 43.1093L6.62394 41.0157ZM38.4221 52.8659L43.5471 71.3034L49.3279 69.6966L44.2029 51.2591L38.4221 52.8659ZM48.5757 72.6043C51.2349 69.9023 54.4983 66.2544 58.3551 61.685L53.7699 57.815C49.96 62.329 46.8068 65.8477 44.2993 68.3957L48.5757 72.6043ZM58.3551 61.685C60.3291 59.3462 61.8874 57.2395 62.9675 55.3846C63.9978 53.6153 64.8125 51.7121 64.8125 49.875H58.8125C58.8125 50.0795 58.6689 50.8431 57.7825 52.3654C56.9459 53.8021 55.6292 55.6122 53.7699 57.815L58.3551 61.685ZM64.8125 49.875C64.8125 49.09 64.6503 48.0827 63.9887 47.173C63.2855 46.2061 62.2941 45.7255 61.3654 45.5514L60.2596 51.4486C59.9976 51.3995 59.5061 51.2105 59.1363 50.702C58.974 50.4789 58.8915 50.2673 58.8513 50.1167C58.8127 49.972 58.8125 49.8822 58.8125 49.875H64.8125ZM61.4633 45.5714C59.3848 45.1095 57.3124 44.875 55.25 44.875V50.875C56.8543 50.875 58.4902 51.0571 60.1617 51.4286L61.4633 45.5714ZM55.25 44.875C49.2213 44.875 43.9238 46.4144 39.5338 49.6467L43.0912 54.4783C46.2845 52.1272 50.2787 50.875 55.25 50.875V44.875ZM139.463 66.3125L138.028 68.9475L138.038 68.9525L138.047 68.9575L139.463 66.3125ZM146.65 72.75L144.166 74.4317L144.181 74.4537L144.196 74.4755L146.65 72.75ZM150.713 81.8125L147.8 82.5316L147.805 82.553L147.811 82.5742L150.713 81.8125ZM151.275 100.938L148.322 100.409L148.318 100.43L148.315 100.451L151.275 100.938ZM146.4 114.562L143.933 112.855L143.921 112.873L143.908 112.892L146.4 114.562ZM128.775 131.562L130.214 134.195L130.227 134.187L130.241 134.18L128.775 131.562ZM119.463 135.312L118.716 132.407L118.693 132.413L118.67 132.419L119.463 135.312ZM100.275 134.875L101.268 132.044L101.257 132.04L101.246 132.037L100.275 134.875ZM92.15 130.562L90.232 132.869L90.2564 132.89L90.2812 132.909L92.15 130.562ZM83.4625 118.125L80.674 119.232L80.6771 119.239L83.4625 118.125ZM89.025 77.1875L91.2118 79.2413L91.2142 79.2387L89.025 77.1875ZM104.4 65.25L105.75 67.929L105.758 67.9248L105.767 67.9205L104.4 65.25ZM130.025 62.4375L129.222 65.3281L129.241 65.3332L129.26 65.3382L130.025 62.4375ZM135.775 76.8125L138.66 75.9883L132.847 76.1576L135.775 76.8125ZM131.15 85.1875L129.01 83.0847L129.001 83.0942L128.992 83.1037L131.15 85.1875ZM121.275 87.9375L119.401 90.2801L119.503 90.3614L119.611 90.4337L121.275 87.9375ZM121.275 77L118.804 75.2981L118.792 75.3169L118.779 75.3359L121.275 77ZM127.338 72.5625L128.437 75.3537L127.338 69.5625V72.5625ZM119.338 74.125L118.216 71.3427L118.208 71.3459L118.2 71.3491L119.338 74.125ZM112.775 78.1875L114.765 80.4325L114.779 80.42L114.793 80.4073L112.775 78.1875ZM108.338 83.75L105.698 82.3246L105.693 82.3342L105.687 82.3439L108.338 83.75ZM112.088 99.1875L110.471 101.715L110.475 101.717L112.088 99.1875ZM129.463 99.4375L131.411 101.718L131.423 101.708L131.435 101.698L129.463 99.4375ZM134.713 91.8125L137.506 92.9071L137.511 92.8944L134.713 91.8125ZM138.047 68.9575C140.588 70.3174 142.612 72.1371 144.166 74.4317L149.134 71.0683C147.021 67.9462 144.254 65.4743 140.878 63.6675L138.047 68.9575ZM144.196 74.4755C145.843 76.8183 147.05 79.4934 147.8 82.5316L153.625 81.0934C152.709 77.3816 151.207 74.015 149.104 71.0245L144.196 74.4755ZM147.811 82.5742C148.617 85.6463 149.025 88.8687 149.025 92.25H155.025C155.025 88.3813 154.558 84.6453 153.614 81.0508L147.811 82.5742ZM149.025 92.25C149.025 95.0828 148.789 97.8012 148.322 100.409L154.228 101.466C154.761 98.4904 155.025 95.4172 155.025 92.25H149.025ZM148.315 100.451C147.882 103.09 147.277 105.474 146.512 107.616L152.163 109.634C153.065 107.109 153.752 104.369 154.235 101.424L148.315 100.451ZM146.512 107.616C145.746 109.761 144.877 111.493 143.933 112.855L148.867 116.27C150.173 114.382 151.262 112.155 152.163 109.634L146.512 107.616ZM143.908 112.892C141.39 116.649 138.719 119.847 135.903 122.506L140.022 126.869C143.206 123.862 146.16 120.309 148.892 116.233L143.908 112.892ZM135.903 122.506C133.055 125.196 130.189 127.332 127.309 128.945L130.241 134.18C133.611 132.293 136.87 129.846 140.022 126.869L135.903 122.506ZM127.336 128.93C124.404 130.533 121.532 131.684 118.716 132.407L120.209 138.218C123.56 137.358 126.896 136.009 130.214 134.195L127.336 128.93ZM118.67 132.419C115.873 133.185 113.119 133.562 110.4 133.562V139.562C113.681 139.562 116.968 139.106 120.255 138.206L118.67 132.419ZM110.4 133.562C107.182 133.562 104.144 133.053 101.268 132.044L99.2823 137.706C102.823 138.947 106.535 139.562 110.4 139.562V133.562ZM101.246 132.037C98.3524 131.047 95.9599 129.761 94.0188 128.216L90.2812 132.909C92.8401 134.947 95.8643 136.537 99.3039 137.713L101.246 132.037ZM94.068 128.256C90.8019 125.54 88.1763 121.832 86.2479 117.011L80.6771 119.239C82.9154 124.835 86.0814 129.418 90.232 132.869L94.068 128.256ZM86.251 117.018C84.312 112.132 83.3375 106.967 83.3375 101.5H77.3375C77.3375 107.7 78.4464 113.618 80.674 119.232L86.251 117.018ZM83.3375 101.5C83.3375 92.0697 86.0379 84.7501 91.2118 79.2413L86.8382 75.1337C80.4288 81.9582 77.3375 90.847 77.3375 101.5H83.3375ZM91.2142 79.2387C95.9839 74.1484 100.834 70.4063 105.75 67.929L103.05 62.571C97.3824 65.427 91.9828 69.6433 86.8359 75.1363L91.2142 79.2387ZM105.767 67.9205C110.667 65.4126 115.618 64.1875 120.65 64.1875V58.1875C114.599 58.1875 108.716 59.6707 103.033 62.5795L105.767 67.9205ZM120.65 64.1875C123.641 64.1875 126.495 64.5705 129.222 65.3281L130.828 59.5469C127.555 58.6379 124.159 58.1875 120.65 58.1875V64.1875ZM129.26 65.3382C131.985 66.0573 134.906 67.2479 138.028 68.9475L140.897 63.6775C137.436 61.7937 134.065 60.401 130.79 59.5368L129.26 65.3382ZM132.847 76.1576C132.267 78.7527 131.011 81.0491 129.01 83.0847L133.29 87.2903C136.039 84.4926 137.866 81.2056 138.703 77.4674L132.847 76.1576ZM128.992 83.1037C126.946 85.2222 125.383 85.8125 124.275 85.8125V91.8125C127.667 91.8125 130.687 89.9861 133.308 87.2713L128.992 83.1037ZM124.275 85.8125C123.699 85.8125 123.286 85.6729 122.939 85.4413L119.611 90.4337C121.014 91.3688 122.601 91.8125 124.275 91.8125V85.8125ZM123.149 85.5949C122.934 85.423 122.4 84.7922 122.4 82.6875H116.4C116.4 85.5828 117.116 88.452 119.401 90.2801L123.149 85.5949ZM122.4 82.6875C122.4 81.4612 122.791 80.1347 123.771 78.6641L118.779 75.3359C117.259 77.6153 116.4 80.0805 116.4 82.6875H122.4ZM123.746 78.7019C124.611 77.4457 126.078 76.2829 128.437 75.3537L126.238 69.7713C123.097 71.0087 120.522 72.8043 118.804 75.2981L123.746 78.7019ZM127.338 69.5625C124.198 69.5625 121.151 70.1591 118.216 71.3427L120.459 76.9073C122.691 76.0075 124.977 75.5625 127.338 75.5625V69.5625ZM118.2 71.3491C115.37 72.509 112.876 74.0416 110.757 75.9677L114.793 80.4073C116.341 79.0001 118.222 77.8243 120.475 76.9009L118.2 71.3491ZM110.785 75.9425C108.698 77.7923 106.995 79.9214 105.698 82.3246L110.977 85.1754C111.93 83.412 113.185 81.8327 114.765 80.4325L110.785 75.9425ZM105.687 82.3439C104.4 84.7704 103.713 87.3121 103.713 89.9375H109.713C109.713 88.3963 110.108 86.813 110.988 85.1561L105.687 82.3439ZM103.713 89.9375C103.713 94.9493 106.126 98.9359 110.471 101.715L113.704 96.6602C110.882 94.8557 109.713 92.6757 109.713 89.9375H103.713ZM110.475 101.717C114.14 104.054 117.861 105.375 121.588 105.375V99.375C119.314 99.375 116.702 98.5713 113.7 96.6578L110.475 101.717ZM121.588 105.375C125.275 105.375 128.588 104.131 131.411 101.718L127.514 97.1568C125.754 98.6606 123.817 99.375 121.588 99.375V105.375ZM131.435 101.698C134.122 99.3533 136.137 96.3986 137.506 92.9071L131.919 90.7179C130.871 93.3931 129.387 95.5217 127.49 97.1772L131.435 101.698ZM137.511 92.8944C138.839 89.4594 139.525 86.01 139.525 82.5625H133.525C133.525 85.1984 133.003 87.9156 131.914 90.7306L137.511 92.8944ZM139.525 82.5625C139.525 80.2399 139.246 78.0418 138.66 75.9883L132.89 77.6367C133.304 79.0832 133.525 80.7185 133.525 82.5625H139.525ZM148.05 29.5625L146.89 26.7959L145.419 27.4125L145.108 28.9765L148.05 29.5625ZM179.8 16.25L182.794 16.0582L182.525 11.8546L178.64 13.4834L179.8 16.25ZM184.425 88.4375L181.431 88.6293L181.733 93.3333L185.866 91.0685L184.425 88.4375ZM210.55 74.125L210.994 71.1581L209.995 71.0084L209.109 71.494L210.55 74.125ZM237.675 78.1875L239.5 80.5682L245.109 76.2675L238.119 75.2206L237.675 78.1875ZM202.3 105.312L200.475 102.932L197.344 105.332L200.494 107.708L202.3 105.312ZM235.613 130.438L238.607 130.258L238.524 128.876L237.419 128.042L235.613 130.438ZM237.113 155.5L235.361 157.936L240.484 161.618L240.107 155.321L237.113 155.5ZM187.988 120.188L189.739 117.752L184.674 114.111L184.991 120.34L187.988 120.188ZM189.55 150.875L189.607 153.874L192.704 153.816L192.546 150.722L189.55 150.875ZM159.8 151.438L156.804 151.593L156.954 154.492L159.857 154.437L159.8 151.438ZM154.175 42.875L157.171 42.7198L156.987 39.1691L153.518 39.9479L154.175 42.875ZM144.988 44.9375L142.045 44.3515L141.144 48.8749L145.645 47.8646L144.988 44.9375ZM149.21 32.3291L180.96 19.0166L178.64 13.4834L146.89 26.7959L149.21 32.3291ZM176.806 16.4418L181.431 88.6293L187.419 88.2457L182.794 16.0582L176.806 16.4418ZM185.866 91.0685L211.991 76.756L209.109 71.494L182.984 85.8065L185.866 91.0685ZM210.106 77.0919L237.231 81.1544L238.119 75.2206L210.994 71.1581L210.106 77.0919ZM235.85 75.8068L200.475 102.932L204.125 107.693L239.5 80.5682L235.85 75.8068ZM200.494 107.708L233.806 132.833L237.419 128.042L204.106 102.917L200.494 107.708ZM232.618 130.617L234.118 155.679L240.107 155.321L238.607 130.258L232.618 130.617ZM238.864 153.064L189.739 117.752L186.236 122.623L235.361 157.936L238.864 153.064ZM184.991 120.34L186.554 151.028L192.546 150.722L190.984 120.035L184.991 120.34ZM189.493 147.876L159.743 148.438L159.857 154.437L189.607 153.874L189.493 147.876ZM162.796 151.282L157.171 42.7198L151.179 43.0302L156.804 151.593L162.796 151.282ZM153.518 39.9479L144.33 42.0104L145.645 47.8646L154.832 45.8021L153.518 39.9479ZM147.93 45.5235L150.992 30.1485L145.108 28.9765L142.045 44.3515L147.93 45.5235ZM287.575 99.4375L289.886 97.524L287.108 94.1704L284.964 97.9602L287.575 99.4375ZM302.637 117.625L305.473 118.604L306.024 117.01L304.948 115.711L302.637 117.625ZM294.012 127.25L292.391 124.726L292.381 124.733L294.012 127.25ZM277.887 134.125L277.115 131.226L277.103 131.229L277.092 131.233L277.887 134.125ZM244.512 134.5L243.547 137.34L243.556 137.343L244.512 134.5ZM234.575 127.875L236.931 126.017L236.923 126.008L234.575 127.875ZM231.887 89.9375L229.08 88.8799L229.076 88.8905L231.887 89.9375ZM239.137 77.1875L237.077 75.0073L237.07 75.0134L239.137 77.1875ZM249.012 70L247.598 67.3546L247.591 67.3581L247.585 67.3616L249.012 70ZM287.012 66.8125L285.997 69.6355L286.012 69.6408L286.027 69.646L287.012 66.8125ZM299.575 74.125L301.874 76.0521L303.739 73.8268L301.576 71.89L299.575 74.125ZM265.262 115.062L262.963 113.135L258.834 118.062H265.262V115.062ZM273.887 113.188L275.145 115.911L275.154 115.907L275.163 115.903L273.887 113.188ZM281.45 107.75L283.59 109.852L283.6 109.843L283.609 109.833L281.45 107.75ZM270.262 84.875L272.596 86.7603L274.92 83.8835L271.626 82.2027L270.262 84.875ZM257.45 84.6875L256.262 81.9329L256.252 81.9372L256.242 81.9416L257.45 84.6875ZM253.012 87.9375L255.384 89.7752L255.428 89.7176L255.47 89.6579L253.012 87.9375ZM249.575 103.125L246.644 103.766L249.575 103.125ZM251.075 108.625L248.204 109.496L249.849 114.916L253.409 110.51L251.075 108.625ZM238.137 39.8125L236.685 37.1877L233.889 38.735L235.609 41.4277L238.137 39.8125ZM271.45 21.375L273.965 19.739L272.441 17.3975L269.997 18.7502L271.45 21.375ZM285.762 43.375L286.323 46.3222L290.716 45.4871L288.277 41.739L285.762 43.375ZM245.325 51.0625L242.797 52.6777L243.89 54.389L245.885 54.0097L245.325 51.0625ZM285.264 101.351L300.327 119.539L304.948 115.711L289.886 97.524L285.264 101.351ZM299.802 116.646C298.894 119.275 296.617 122.012 292.391 124.726L295.634 129.774C300.491 126.655 303.964 122.975 305.473 118.604L299.802 116.646ZM292.381 124.733C288.193 127.447 283.121 129.625 277.115 131.226L278.66 137.024C285.154 135.292 290.832 132.887 295.644 129.767L292.381 124.733ZM277.092 131.233C271.133 132.872 265.192 133.688 259.262 133.688V139.688C265.75 139.688 272.225 138.795 278.683 137.017L277.092 131.233ZM259.262 133.688C254.024 133.688 249.439 132.993 245.469 131.657L243.556 137.343C248.253 138.924 253.501 139.688 259.262 139.688V133.688ZM245.478 131.66C241.622 130.349 238.838 128.435 236.93 126.017L232.219 129.733C234.979 133.231 238.82 135.734 243.547 137.34L245.478 131.66ZM236.923 126.008C233.39 121.564 231.512 115.767 231.512 108.375H225.512C225.512 116.817 227.677 124.019 232.227 129.742L236.923 126.008ZM231.512 108.375C231.512 102.494 232.57 96.7019 234.699 90.9845L229.076 88.8905C226.705 95.2564 225.512 101.756 225.512 108.375H231.512ZM234.695 90.9951C236.941 85.0333 239.164 81.3022 241.205 79.3616L237.07 75.0134C234.028 77.9061 231.418 82.6751 229.08 88.8799L234.695 90.9951ZM241.198 79.3677C244.057 76.6653 247.138 74.4258 250.44 72.6384L247.585 67.3616C243.804 69.4076 240.301 71.9597 237.077 75.0073L241.198 79.3677ZM250.427 72.6454C253.8 70.8416 257.278 69.4948 260.865 68.5979L259.41 62.7771C255.331 63.7969 251.392 65.325 247.598 67.3546L250.427 72.6454ZM260.865 68.5979C264.455 67.7004 268.148 67.25 271.95 67.25V61.25C267.669 61.25 263.487 61.7579 259.41 62.7771L260.865 68.5979ZM271.95 67.25C276.912 67.25 281.588 68.0499 285.997 69.6355L288.028 63.9895C282.937 62.1585 277.571 61.25 271.95 61.25V67.25ZM286.027 69.646C290.465 71.1896 294.302 73.4307 297.574 76.36L301.576 71.89C297.681 68.4026 293.144 65.7688 287.998 63.979L286.027 69.646ZM297.276 72.1979L262.963 113.135L267.562 116.99L301.874 76.0521L297.276 72.1979ZM265.262 118.062C268.729 118.062 272.034 117.347 275.145 115.911L272.63 110.464C270.324 111.528 267.879 112.062 265.262 112.062V118.062ZM275.163 115.903C278.259 114.449 281.068 112.42 283.59 109.852L279.31 105.648C277.248 107.747 275.016 109.343 272.612 110.472L275.163 115.903ZM283.609 109.833C286.093 107.259 288.282 104.279 290.186 100.915L284.964 97.9602C283.284 100.929 281.39 103.491 279.291 105.667L283.609 109.833ZM271.626 82.2027C269.196 80.963 266.648 80.3125 264.012 80.3125V86.3125C265.627 86.3125 267.246 86.7037 268.899 87.5473L271.626 82.2027ZM264.012 80.3125C261.342 80.3125 258.751 80.8591 256.262 81.9329L258.638 87.4421C260.399 86.6826 262.183 86.3125 264.012 86.3125V80.3125ZM256.242 81.9416C253.886 82.978 251.863 84.3483 250.555 86.2171L255.47 89.6579C255.912 89.0267 256.847 88.2303 258.658 87.4334L256.242 81.9416ZM250.641 86.0998C247.674 89.9284 246.137 94.2344 246.137 98.9375H252.137C252.137 95.6406 253.184 92.6133 255.384 89.7752L250.641 86.0998ZM246.137 98.9375C246.137 100.597 246.304 102.208 246.644 103.766L252.506 102.484C252.263 101.375 252.137 100.195 252.137 98.9375H246.137ZM246.644 103.766C246.961 105.215 247.488 107.136 248.204 109.496L253.946 107.754C253.245 105.447 252.772 103.702 252.506 102.484L246.644 103.766ZM253.409 110.51L272.596 86.7603L267.929 82.9897L248.741 106.74L253.409 110.51ZM239.59 42.4373L272.903 23.9998L269.997 18.7502L236.685 37.1877L239.59 42.4373ZM268.935 23.011L283.248 45.011L288.277 41.739L273.965 19.739L268.935 23.011ZM285.202 40.4278L244.765 48.1153L245.885 54.0097L286.323 46.3222L285.202 40.4278ZM247.853 49.4473L240.666 38.1973L235.609 41.4277L242.797 52.6777L247.853 49.4473ZM341.85 72.8125L343.514 75.3087L341.471 69.8365L341.85 72.8125ZM335.038 75L333.657 72.3367L333.646 72.342L333.636 72.3474L335.038 75ZM325.6 84.375L322.894 83.0806L322.887 83.0935L322.881 83.1063L325.6 84.375ZM329.663 99.1875L331.334 96.6964L331.327 96.6916L331.32 96.6869L329.663 99.1875ZM341.85 102.125L342.306 105.09L344.85 104.699V102.125H341.85ZM341.85 88.8125H344.85V85.8125H341.85V88.8125ZM338.85 87.9375L336.976 90.2801L337.078 90.3614L337.186 90.4337L338.85 87.9375ZM341.288 12.125L340.057 9.38899L338.265 10.1948L338.288 12.1593L341.288 12.125ZM367.413 0.375L370.412 0.319618L370.328 -4.22577L366.182 -2.36101L367.413 0.375ZM368.975 85L365.976 85.0554L365.979 85.2569L366.01 85.4562L368.975 85ZM369.225 97.75L366.255 97.3257L366.221 97.566L366.226 97.8087L369.225 97.75ZM369.975 136.062L370.135 139.058L373.031 138.904L372.974 136.004L369.975 136.062ZM341.85 137.562H338.85V140.727L342.01 140.558L341.85 137.562ZM341.85 133.75H344.85V129.281L340.714 130.973L341.85 133.75ZM317.85 134.938L316.867 137.772L316.879 137.776L317.85 134.938ZM309.725 130.562L307.807 132.869L307.829 132.887L307.851 132.905L309.725 130.562ZM301.038 118.125L298.249 119.232L298.252 119.239L301.038 118.125ZM306.6 77.1875L304.428 75.1185L304.42 75.1261L304.413 75.1337L306.6 77.1875ZM322.038 65.25L320.679 62.5751L320.671 62.5795L322.038 65.25ZM341.85 61.3125L341.536 64.296L344.888 64.6489L344.85 61.2782L341.85 61.3125ZM341.471 69.8365C338.797 70.1768 336.189 71.0235 333.657 72.3367L336.418 77.6633C338.386 76.6432 340.319 76.0315 342.229 75.7885L341.471 69.8365ZM333.636 72.3474C331.193 73.6382 329.047 75.1854 327.229 77.0037L331.471 81.2463C332.82 79.898 334.466 78.6951 336.439 77.6526L333.636 72.3474ZM327.229 77.0037C325.418 78.8144 323.965 80.8409 322.894 83.0806L328.306 85.6694C329.069 84.0758 330.115 82.6022 331.471 81.2463L327.229 77.0037ZM322.881 83.1063C321.845 85.3273 321.288 87.6125 321.288 89.9375H327.288C327.288 88.5958 327.605 87.1727 328.319 85.6437L322.881 83.1063ZM321.288 89.9375C321.288 94.883 323.715 98.8444 328.005 101.688L331.32 96.6869C328.444 94.7806 327.288 92.5753 327.288 89.9375H321.288ZM327.991 101.679C331.564 104.077 335.345 105.375 339.288 105.375V99.375C336.73 99.375 334.094 98.5485 331.334 96.6964L327.991 101.679ZM339.288 105.375C340.138 105.375 341.166 105.265 342.306 105.09L341.394 99.1599C340.367 99.3178 339.687 99.375 339.288 99.375V105.375ZM344.85 102.125V88.8125H338.85V102.125H344.85ZM341.85 85.8125C341.274 85.8125 340.861 85.6729 340.514 85.4413L337.186 90.4337C338.589 91.3688 340.176 91.8125 341.85 91.8125V85.8125ZM340.724 85.5949C340.581 85.4805 339.975 84.7785 339.975 82.1875H333.975C333.975 85.2632 334.619 88.3945 336.976 90.2801L340.724 85.5949ZM339.975 82.1875C339.975 79.0527 341.143 76.8894 343.514 75.3087L340.186 70.3163C336.057 73.069 333.975 77.1556 333.975 82.1875H339.975ZM342.518 14.861L368.643 3.11101L366.182 -2.36101L340.057 9.38899L342.518 14.861ZM364.413 0.430382L365.976 85.0554L371.974 84.9446L370.412 0.319618L364.413 0.430382ZM366.01 85.4562C366.315 87.4396 366.475 89.7411 366.475 92.375H372.475C372.475 89.5089 372.302 86.8937 371.94 84.5438L366.01 85.4562ZM366.475 92.375C366.475 94.7647 366.39 96.38 366.255 97.3257L372.195 98.1743C372.393 96.7867 372.475 94.8186 372.475 92.375H366.475ZM366.226 97.8087L366.976 136.121L372.974 136.004L372.224 97.6913L366.226 97.8087ZM369.815 133.067L341.69 134.567L342.01 140.558L370.135 139.058L369.815 133.067ZM344.85 137.562V133.75H338.85V137.562H344.85ZM340.714 130.973C336.469 132.71 332.229 133.562 327.975 133.562V139.562C333.055 139.562 338.064 138.54 342.986 136.527L340.714 130.973ZM327.975 133.562C324.699 133.562 321.654 133.068 318.821 132.099L316.879 137.776C320.38 138.974 324.085 139.562 327.975 139.562V133.562ZM318.833 132.103C315.99 131.118 313.592 129.814 311.599 128.22L307.851 132.905C310.441 134.977 313.46 136.591 316.867 137.772L318.833 132.103ZM311.643 128.256C308.377 125.54 305.751 121.832 303.823 117.011L298.252 119.239C300.49 124.835 303.656 129.418 307.807 132.869L311.643 128.256ZM303.826 117.018C301.887 112.132 300.913 106.967 300.913 101.5H294.913C294.913 107.7 296.021 113.618 298.249 119.232L303.826 117.018ZM300.913 101.5C300.913 92.0697 303.613 84.7501 308.787 79.2413L304.413 75.1337C298.004 81.9582 294.913 90.847 294.913 101.5H300.913ZM308.772 79.2565C313.589 74.199 318.471 70.4456 323.404 67.9205L320.671 62.5795C315.021 65.4711 309.611 69.676 304.428 75.1185L308.772 79.2565ZM323.396 67.9249C328.342 65.4129 333.317 64.1875 338.35 64.1875V58.1875C332.299 58.1875 326.399 59.6704 320.679 62.5751L323.396 67.9249ZM338.35 64.1875C339.865 64.1875 340.905 64.2296 341.536 64.296L342.164 58.329C341.212 58.2288 339.919 58.1875 338.35 58.1875V64.1875ZM344.85 61.2782L344.287 12.0907L338.288 12.1593L338.85 61.3468L344.85 61.2782ZM428.375 99.4375L430.686 97.524L427.908 94.1704L425.764 97.9602L428.375 99.4375ZM443.438 117.625L446.273 118.604L446.824 117.01L445.748 115.711L443.438 117.625ZM434.812 127.25L433.191 124.726L433.181 124.733L434.812 127.25ZM418.688 134.125L417.915 131.226L417.903 131.229L417.892 131.233L418.688 134.125ZM385.312 134.5L384.347 137.34L384.356 137.343L385.312 134.5ZM375.375 127.875L377.731 126.017L377.723 126.008L375.375 127.875ZM372.688 89.9375L369.88 88.8799L369.876 88.8905L372.688 89.9375ZM379.938 77.1875L377.877 75.0073L377.87 75.0134L379.938 77.1875ZM389.812 70L388.398 67.3546L388.391 67.3581L388.385 67.3616L389.812 70ZM427.812 66.8125L426.797 69.6355L426.812 69.6408L426.827 69.646L427.812 66.8125ZM440.375 74.125L442.674 76.0521L444.539 73.8268L442.376 71.89L440.375 74.125ZM406.062 115.062L403.763 113.135L399.634 118.062H406.062V115.062ZM414.688 113.188L415.945 115.911L415.954 115.907L415.963 115.903L414.688 113.188ZM422.25 107.75L424.39 109.852L424.4 109.843L424.409 109.833L422.25 107.75ZM411.062 84.875L413.396 86.7603L415.72 83.8835L412.426 82.2027L411.062 84.875ZM398.25 84.6875L397.062 81.9329L397.052 81.9372L397.042 81.9416L398.25 84.6875ZM393.812 87.9375L396.184 89.7752L396.228 89.7176L396.27 89.6579L393.812 87.9375ZM390.375 103.125L387.444 103.766L390.375 103.125ZM391.875 108.625L389.004 109.496L390.649 114.916L394.209 110.51L391.875 108.625ZM426.064 101.351L441.127 119.539L445.748 115.711L430.686 97.524L426.064 101.351ZM440.602 116.646C439.694 119.275 437.417 122.012 433.191 124.726L436.434 129.774C441.291 126.655 444.764 122.975 446.273 118.604L440.602 116.646ZM433.181 124.733C428.993 127.447 423.921 129.625 417.915 131.226L419.46 137.024C425.954 135.292 431.632 132.887 436.444 129.767L433.181 124.733ZM417.892 131.233C411.933 132.872 405.992 133.688 400.062 133.688V139.688C406.55 139.688 413.025 138.795 419.483 137.017L417.892 131.233ZM400.062 133.688C394.824 133.688 390.239 132.993 386.269 131.657L384.356 137.343C389.053 138.924 394.301 139.688 400.062 139.688V133.688ZM386.278 131.66C382.422 130.349 379.638 128.435 377.73 126.017L373.02 129.733C375.779 133.231 379.62 135.734 384.347 137.34L386.278 131.66ZM377.723 126.008C374.19 121.564 372.312 115.767 372.312 108.375H366.312C366.312 116.817 368.477 124.019 373.027 129.742L377.723 126.008ZM372.312 108.375C372.312 102.494 373.37 96.7019 375.499 90.9845L369.876 88.8905C367.505 95.2564 366.312 101.756 366.312 108.375H372.312ZM375.495 90.9951C377.741 85.0333 379.964 81.3022 382.005 79.3616L377.87 75.0134C374.828 77.9061 372.218 82.6751 369.88 88.8799L375.495 90.9951ZM381.998 79.3677C384.857 76.6653 387.938 74.4258 391.24 72.6384L388.385 67.3616C384.604 69.4076 381.101 71.9597 377.877 75.0073L381.998 79.3677ZM391.227 72.6454C394.6 70.8416 398.078 69.4948 401.665 68.5979L400.21 62.7771C396.131 63.7969 392.192 65.325 388.398 67.3546L391.227 72.6454ZM401.665 68.5979C405.255 67.7004 408.948 67.25 412.75 67.25V61.25C408.469 61.25 404.287 61.7579 400.21 62.7771L401.665 68.5979ZM412.75 67.25C417.712 67.25 422.388 68.0499 426.797 69.6355L428.828 63.9895C423.737 62.1585 418.371 61.25 412.75 61.25V67.25ZM426.827 69.646C431.265 71.1896 435.102 73.4307 438.374 76.36L442.376 71.89C438.481 68.4026 433.944 65.7688 428.798 63.979L426.827 69.646ZM438.076 72.1979L403.763 113.135L408.362 116.99L442.674 76.0521L438.076 72.1979ZM406.062 118.062C409.529 118.062 412.834 117.347 415.945 115.911L413.43 110.464C411.124 111.528 408.679 112.062 406.062 112.062V118.062ZM415.963 115.903C419.059 114.449 421.868 112.42 424.39 109.852L420.11 105.648C418.048 107.747 415.816 109.343 413.412 110.472L415.963 115.903ZM424.409 109.833C426.893 107.259 429.082 104.279 430.986 100.915L425.764 97.9602C424.084 100.929 422.19 103.491 420.091 105.667L424.409 109.833ZM412.426 82.2027C409.996 80.963 407.448 80.3125 404.812 80.3125V86.3125C406.427 86.3125 408.046 86.7037 409.699 87.5473L412.426 82.2027ZM404.812 80.3125C402.142 80.3125 399.551 80.8591 397.062 81.9329L399.438 87.4421C401.199 86.6826 402.983 86.3125 404.812 86.3125V80.3125ZM397.042 81.9416C394.686 82.978 392.663 84.3483 391.355 86.2171L396.27 89.6579C396.712 89.0267 397.647 88.2303 399.458 87.4334L397.042 81.9416ZM391.441 86.0998C388.474 89.9284 386.938 94.2344 386.938 98.9375H392.938C392.938 95.6406 393.984 92.6133 396.184 89.7752L391.441 86.0998ZM386.938 98.9375C386.938 100.597 387.104 102.208 387.444 103.766L393.306 102.484C393.063 101.375 392.938 100.195 392.938 98.9375H386.938ZM387.444 103.766C387.761 105.215 388.288 107.136 389.004 109.496L394.746 107.754C394.045 105.447 393.572 103.702 393.306 102.484L387.444 103.766ZM394.209 110.51L413.396 86.7603L408.729 82.9897L389.541 106.74L394.209 110.51ZM485.962 122.125L488.34 120.295L485.967 117.214L483.589 120.29L485.962 122.125ZM470.837 141.688L470.93 144.686L472.345 144.642L473.211 143.522L470.837 141.688ZM438.587 142.688L436.195 140.878L432.411 145.88L438.68 145.686L438.587 142.688ZM469.837 101.375L472.23 103.185L473.614 101.355L472.211 99.5404L469.837 101.375ZM434.525 55.6875L434.656 52.6904L428.198 52.4075L432.151 57.5221L434.525 55.6875ZM468.775 57.1875L471.166 55.3759L470.315 54.2521L468.906 54.1904L468.775 57.1875ZM485.962 79.875L483.571 81.6866L485.967 84.8488L488.357 81.6824L485.962 79.875ZM503.087 57.1875L502.956 54.1904L501.545 54.2521L500.693 55.3801L503.087 57.1875ZM537.4 55.6875L539.774 57.5221L543.726 52.4081L537.269 52.6904L537.4 55.6875ZM502.087 101.375L499.714 99.5404L498.311 101.355L499.695 103.185L502.087 101.375ZM533.337 142.688L533.245 145.686L539.514 145.88L535.73 140.878L533.337 142.688ZM501.025 141.688L498.648 143.518L499.514 144.642L500.932 144.686L501.025 141.688ZM483.589 120.29L468.464 139.853L473.211 143.522L488.336 123.96L483.589 120.29ZM470.745 138.689L438.495 139.689L438.68 145.686L470.93 144.686L470.745 138.689ZM440.98 144.497L472.23 103.185L467.445 99.5652L436.195 140.878L440.98 144.497ZM472.211 99.5404L436.899 53.8529L432.151 57.5221L467.464 103.21L472.211 99.5404ZM434.394 58.6846L468.644 60.1846L468.906 54.1904L434.656 52.6904L434.394 58.6846ZM466.384 58.9991L483.571 81.6866L488.354 78.0634L471.166 55.3759L466.384 58.9991ZM488.357 81.6824L505.482 58.9949L500.693 55.3801L483.568 78.0676L488.357 81.6824ZM503.219 60.1846L537.531 58.6846L537.269 52.6904L502.956 54.1904L503.219 60.1846ZM535.026 53.8529L499.714 99.5404L504.461 103.21L539.774 57.5221L535.026 53.8529ZM499.695 103.185L530.945 144.497L535.73 140.878L504.48 99.5652L499.695 103.185ZM533.43 139.689L501.118 138.689L500.932 144.686L533.245 145.686L533.43 139.689ZM503.402 139.857L488.34 120.295L483.585 123.955L498.648 143.518L503.402 139.857Z" fill="white"/>
</svg>
