<svg width="570" height="570" viewBox="0 0 570 570" fill="none" xmlns="http://www.w3.org/2000/svg">
<path d="M459.277 287.876H370.89C362.782 330.026 327.472 361.752 285.139 361.752C242.807 361.752 207.495 330.026 199.388 287.876H111C119.78 381.206 194.394 454.098 285.139 454.098C375.885 454.098 450.497 381.206 459.277 287.876Z" fill="#FAFAFA"/>
<path fill-rule="evenodd" clip-rule="evenodd" d="M285.139 324.814C314.135 324.814 337.64 300.009 337.64 269.407C337.64 238.806 314.135 214 285.139 214C256.144 214 232.638 238.806 232.638 269.407C232.638 300.009 256.144 324.814 285.139 324.814ZM311.389 269.407C311.389 284.707 299.638 297.111 285.139 297.111C270.641 297.111 258.888 284.707 258.888 269.407C258.888 254.107 270.641 241.704 285.139 241.704C299.638 241.704 311.389 254.107 311.389 269.407Z" fill="#FAFAFA"/>
<g clip-path="url(#clip0_144_3)">
<path d="M411.225 146.435C394.981 138.32 381.571 142.485 371.597 158.197L387.429 167.338C390.768 161.868 396.437 159.548 402.511 162.153C408.507 164.893 413.138 169.371 412.575 174.098C411.912 179.308 405.175 181.914 402.109 182.85C396.403 184.607 389.079 184.168 383.759 186.508C378.573 188.927 374.985 193.892 370.964 200.231L384.902 208.278C387.459 204.161 389.995 200.393 393.374 198.916C398.908 196.518 404.603 197.28 410.345 196.085C415.795 195.082 421.907 193.558 425.886 187.917C438.264 171.789 428.765 155.118 411.225 146.435Z" fill="#FF3F63"/>
<path d="M364.834 227.724C369.692 230.529 375.868 228.925 378.63 224.142C381.391 219.359 379.692 213.208 374.834 210.404C369.976 207.599 363.8 209.203 361.038 213.986C358.277 218.769 359.976 224.92 364.834 227.724Z" fill="#FF3F63"/>
</g>
<path d="M283.188 99.2812C265.063 100.375 255.531 110.687 254.75 129.281H273.031C273.188 122.875 276.938 118.031 283.5 117.25C290.062 116.625 296.312 118.187 298.188 122.562C300.219 127.406 295.688 133.031 293.5 135.375C289.438 139.75 282.875 143.031 279.437 147.719C276.156 152.406 275.531 158.5 275.219 166H291.313C291.469 161.156 291.781 156.625 293.969 153.656C297.562 148.812 302.875 146.625 307.25 142.719C311.469 139.125 316 134.75 316.625 127.875C319.281 107.719 302.719 98.0312 283.188 99.2812Z" fill="#FF3F63"/>
<path d="M283.656 192.875C289.265 192.875 293.812 188.398 293.812 182.875C293.812 177.352 289.265 172.875 283.656 172.875C278.047 172.875 273.5 177.352 273.5 182.875C273.5 188.398 278.047 192.875 283.656 192.875Z" fill="#FF3F63"/>
<g clip-path="url(#clip1_144_3)">
<path d="M141.506 149.248C126.356 159.258 123.258 172.954 131.879 189.447L147.711 180.307C144.643 174.681 145.469 168.611 150.761 164.653C156.132 160.831 162.326 159.059 166.137 161.91C170.318 165.089 169.207 172.226 168.484 175.35C167.153 181.17 163.111 187.293 162.477 193.071C161.979 198.771 164.485 204.361 167.964 211.012L181.902 202.966C179.615 198.693 177.62 194.612 178.031 190.947C178.721 184.956 182.228 180.405 184.064 174.835C185.92 169.613 187.657 163.558 184.761 157.292C176.983 138.508 157.796 138.4 141.506 149.248Z" fill="#FF3F63"/>
<path d="M188.709 230.068C193.567 227.263 195.266 221.113 192.505 216.33C189.743 211.547 183.567 209.943 178.709 212.748C173.851 215.552 172.152 221.703 174.913 226.486C177.675 231.269 183.851 232.873 188.709 230.068Z" fill="#FF3F63"/>
</g>
<defs>
<clipPath id="clip0_144_3">
<rect width="100" height="100" fill="white" transform="translate(372 120) rotate(30)"/>
</clipPath>
<clipPath id="clip1_144_3">
<rect width="100" height="100" fill="white" transform="translate(99 170) rotate(-30)"/>
</clipPath>
</defs>
</svg>
