<svg width="326" height="307" viewBox="0 0 326 307" fill="none" xmlns="http://www.w3.org/2000/svg">
<path d="M313 172L236.865 172C229.881 206.233 199.465 232 163 232C126.536 232 96.1193 206.233 89.1357 172H13C20.5632 247.799 84.8341 307 163 307C241.167 307 305.437 247.799 313 172Z" fill="#FAFAFA"/>
<path fill-rule="evenodd" clip-rule="evenodd" d="M163 202C187.977 202 208.223 181.854 208.223 157C208.223 132.146 187.977 112 163 112C138.025 112 117.777 132.146 117.777 157C117.777 181.854 138.025 202 163 202ZM185.612 157C185.612 169.426 175.489 179.5 163 179.5C150.512 179.5 140.388 169.426 140.388 157C140.388 144.574 150.512 134.5 163 134.5C175.489 134.5 185.612 144.574 185.612 157Z" fill="#FAFAFA"/>
<g clip-path="url(#clip0_90_26)">
<path d="M278.225 61.4354C261.981 53.3201 248.571 57.4854 238.597 73.1974L254.429 82.338C257.768 76.8682 263.437 74.5484 269.511 77.153C275.507 79.893 280.138 84.3712 279.575 89.0975C278.912 94.308 272.175 96.9137 269.109 97.8497C263.403 99.6074 256.079 99.1677 250.759 101.508C245.573 103.927 241.985 108.892 237.964 115.231L251.902 123.278C254.459 119.161 256.995 115.393 260.374 113.916C265.908 111.518 271.603 112.28 277.345 111.085C282.795 110.082 288.907 108.558 292.886 102.917C305.264 86.7894 295.765 70.1185 278.225 61.4354Z" fill="#FF3F63"/>
<path d="M231.834 142.724C236.692 145.529 242.868 143.925 245.63 139.142C248.391 134.359 246.692 128.208 241.834 125.404C236.976 122.599 230.8 124.203 228.038 128.986C225.277 133.769 226.976 139.92 231.834 142.724Z" fill="#FF3F63"/>
</g>
<path d="M161.188 3.28124C143.063 4.37499 133.531 14.6875 132.75 33.2812H151.031C151.188 26.875 154.937 22.0312 161.5 21.25C168.062 20.625 174.312 22.1875 176.187 26.5625C178.219 31.4062 173.687 37.0312 171.5 39.375C167.437 43.75 160.875 47.0312 157.437 51.7187C154.156 56.4062 153.531 62.5 153.219 70H169.313C169.469 65.1562 169.781 60.625 171.969 57.6562C175.562 52.8125 180.875 50.625 185.25 46.7187C189.469 43.125 194 38.75 194.625 31.875C197.281 11.7187 180.719 2.03124 161.188 3.28124Z" fill="#FF3F63"/>
<path d="M161.656 96.875C167.265 96.875 171.812 92.3978 171.812 86.875C171.812 81.3521 167.265 76.875 161.656 76.875C156.047 76.875 151.5 81.3521 151.5 86.875C151.5 92.3978 156.047 96.875 161.656 96.875Z" fill="#FF3F63"/>
<g clip-path="url(#clip1_90_26)">
<path d="M42.5062 59.2479C27.3564 69.2576 24.2583 82.9541 32.8786 99.4474L48.7107 90.3068C45.6428 84.6807 46.4686 78.6109 51.7612 74.653C57.132 70.8305 63.3259 69.0587 67.1372 71.91C71.3182 75.0892 70.2065 82.2262 69.484 85.3497C68.1533 91.1699 64.1106 97.2927 63.4774 103.071C62.9795 108.771 65.4851 114.361 68.9645 121.012L82.902 112.966C80.6155 108.693 78.6205 104.612 79.0306 100.947C79.721 94.9557 83.228 90.405 85.0637 84.8346C86.9204 79.613 88.6571 73.5585 85.7608 67.2921C77.9831 48.5081 58.7958 48.3997 42.5062 59.2479Z" fill="#FF3F63"/>
<path d="M89.709 140.068C94.5667 137.263 96.266 131.113 93.5046 126.33C90.7432 121.547 84.5667 119.943 79.709 122.748C74.8514 125.552 73.152 131.703 75.9134 136.486C78.6749 141.269 84.8514 142.873 89.709 140.068Z" fill="#FF3F63"/>
</g>
<defs>
<clipPath id="clip0_90_26">
<rect width="100" height="100" fill="white" transform="translate(239 35) rotate(30)"/>
</clipPath>
<clipPath id="clip1_90_26">
<rect width="100" height="100" fill="white" transform="translate(0 80) rotate(-30)"/>
</clipPath>
</defs>
</svg>
